<svg width="455" height="365" viewBox="0 0 455 365" fill="none" xmlns="http://www.w3.org/2000/svg">
<path d="M413.395 364.968L413.368 364.713C412.933 360.434 413.433 356.112 414.832 352.046C416.231 347.981 418.497 344.27 421.47 341.171C423.152 339.446 425.044 337.94 427.101 336.69L427.297 336.57L427.362 336.791C428.131 339.428 429.155 342.089 429.623 343.268L430.659 334.821L430.883 334.724C431.907 334.272 433.043 334.139 434.143 334.341C435.244 334.542 436.259 335.07 437.058 335.855C437.887 336.637 438.463 337.65 438.713 338.763C438.963 339.877 438.874 341.039 438.459 342.102C438.089 343.075 437.733 344.086 437.388 345.065C436.204 348.426 434.979 351.902 432.908 354.747C431.32 356.886 429.275 358.641 426.923 359.886C424.572 361.13 421.972 361.832 419.316 361.941L413.395 364.968Z" fill="#F2F2F2"/>
<path d="M200.567 361.941C197.91 361.832 195.311 361.13 192.959 359.886C190.608 358.641 188.563 356.886 186.974 354.747C184.904 351.902 183.679 348.426 182.494 345.065C182.15 344.086 181.793 343.075 181.424 342.102C181.008 341.039 180.92 339.876 181.17 338.763C181.419 337.65 181.996 336.637 182.825 335.855C183.624 335.07 184.639 334.542 185.739 334.341C186.84 334.139 187.976 334.272 189 334.724L189.223 334.821L190.259 343.268C190.728 342.089 191.751 339.428 192.521 336.791L192.585 336.57L192.781 336.69C194.838 337.94 196.73 339.446 198.412 341.171C201.386 344.27 203.651 347.981 205.051 352.046C206.45 356.112 206.95 360.434 206.515 364.713L206.488 364.968L200.567 361.941Z" fill="#F2F2F2"/>
<path d="M133.143 188.858C133.143 188.858 130.393 166.559 124.195 159.765L109.609 165.43L121.127 194.901L144.432 224.382C144.549 225.475 144.953 226.518 145.602 227.405C146.251 228.291 147.123 228.989 148.128 229.429C149.133 229.868 150.237 230.033 151.326 229.906C152.415 229.78 153.452 229.367 154.331 228.708C155.209 228.05 155.899 227.171 156.329 226.159C156.759 225.147 156.914 224.04 156.779 222.948C156.644 221.857 156.224 220.821 155.561 219.945C154.897 219.069 154.015 218.385 153.002 217.962L133.143 188.858Z" fill="#A0616A"/>
<path d="M58.7997 201.285C58.7997 201.285 68.7766 181.167 67.3476 172.071L52.066 168.724L45.4531 199.675L48.6655 237.157C48.1616 238.134 47.9245 239.227 47.9781 240.326C48.0318 241.424 48.3743 242.489 48.9709 243.412C49.5675 244.334 50.3969 245.082 51.375 245.58C52.3531 246.077 53.445 246.306 54.5399 246.243C55.6348 246.181 56.6936 245.829 57.609 245.223C58.5243 244.617 59.2636 243.78 59.7517 242.795C60.2398 241.81 60.4593 240.713 60.3881 239.616C60.3168 238.518 59.9573 237.459 59.3459 236.546L58.7997 201.285Z" fill="#A0616A"/>
<path d="M76.448 355.451H83.6773L87.1162 327.487L76.4465 327.488L76.448 355.451Z" fill="#9E616A"/>
<path d="M76.1932 363.015L98.4241 363.014V362.732C98.424 360.431 97.5123 358.224 95.8896 356.596C94.2669 354.969 92.0661 354.055 89.7712 354.055H89.7707L85.7099 350.965L78.1335 354.055L76.1929 354.055L76.1932 363.015Z" fill="#2F2E41"/>
<path d="M96.2539 351.349L103.305 352.947L112.807 326.432L102.399 324.074L96.2539 351.349Z" fill="#9E616A"/>
<path d="M94.3435 358.67L116.028 363.583L116.09 363.308C116.595 361.063 116.191 358.709 114.966 356.763C113.741 354.817 111.795 353.439 109.557 352.932L109.557 352.932L106.275 349.021L98.2054 350.36L96.3125 349.931L94.3435 358.67Z" fill="#2F2E41"/>
<path d="M128.819 279.248C124.526 292.963 113.545 329.369 113.545 329.369C113.545 329.369 104.198 331.708 101.25 329.369C98.3014 327.029 101.973 319.215 101.973 319.215C100.029 310.461 104.403 301.613 104.687 293.126C104.097 289.564 107.223 286.507 107.51 283.11C105.443 281.533 95.3898 256.785 93.3396 249.87C94.3932 270.941 91.848 302.534 88.9552 322.841C87.5859 332.454 85.6767 329.645 75.9372 330.094C71.5946 328.8 72.3211 319.215 72.3211 319.215V311.237C70.2102 302.303 70.1823 300.374 70.8747 296.007C70.5574 291.371 66.5786 243.444 63.0479 227.223C60.695 214.301 89.531 211.457 97.824 208.375C111.662 201.69 109.327 211.195 116.614 219.951C123.641 235.045 127.78 261.998 128.819 279.248Z" fill="#2F2E41"/>
<path d="M101.057 139.126L94.0604 129.097H81.7656L70.9174 139.25L70.0054 229.464L119.097 234.983L101.057 139.126Z" fill="#D2B100"/>
<path d="M96.1924 131.454L115.672 140.394L119.373 197.997C119.373 197.997 122.497 205.396 122.745 206.125C123.006 206.889 123.526 210.661 123.301 211.289C122.61 213.314 122.26 215.439 122.266 217.579C122.435 219.221 124.183 222.152 124.641 223.737C124.956 224.831 122.989 228.458 122.989 228.458C123.796 229.676 124.327 231.057 124.543 232.503C124.759 233.95 124.656 235.426 124.241 236.828L123.712 238.612L113.587 237.161L109.222 215.637L108.761 213.366L108.284 211.015L107.912 209.178L107.58 207.545L107.302 206.174L96.1924 131.454Z" fill="#3F3D56"/>
<path d="M103.377 143.295L115.672 140.394C121.604 147.312 126.424 160.955 130.225 173.385C130.495 174.27 130.283 175.492 131.021 176.018C132.361 176.974 133.161 178.127 132.192 179.978C131.821 180.685 132.636 181.499 132.852 182.241C133.034 182.865 132.787 183.905 133.388 184.084C135.108 184.598 135.191 186.072 134.518 187.942L120.054 195.195L119.641 194.527L118.017 191.896L111.026 180.575L103.377 143.295Z" fill="#3F3D56"/>
<path d="M78.8727 131.998L67.9396 141.844C67.9396 141.844 65.3813 183.531 63.6851 199.448C63.6129 200.124 64.5542 201.741 64.4821 202.418L64.0586 206.392L63.7398 209.383C63.6252 210.458 62.2386 221.205 62.2386 221.205L60.0694 222.656C59.1469 226.807 59.6627 231.148 61.5317 234.966L62.9618 237.886L78.7879 236.129L78.8727 131.998Z" fill="#3F3D56"/>
<path d="M72.3537 148.02L67.9396 141.844L54.1985 150.547C51.1663 158.96 47.8407 173.637 46.004 186.401C45.9624 186.69 46.1569 187.177 45.8816 187.265C44.8921 187.579 44.5931 188.077 45.6552 188.94C45.7788 189.094 45.8701 189.272 45.9239 189.463C45.9777 189.653 45.9928 189.853 45.9683 190.049C45.9438 190.246 45.8802 190.435 45.7813 190.607C45.6824 190.778 45.5502 190.928 45.3926 191.047C44.2277 191.603 43.3323 192.151 45.2069 192.688C46.5252 193.066 44.9359 195.378 44.8387 196.645L60.7495 200.272C62.2034 199.852 62.4792 198.998 61.7048 197.757C62.9031 197.394 63.3568 196.75 62.5183 195.616L62.9117 194.58C64.2484 194.373 64.2297 193.817 63.4837 193.074L64.026 191.647L66.5353 185.041L72.3537 148.02Z" fill="#3F3D56"/>
<path d="M86.177 126.269C95.1073 126.269 102.347 119.009 102.347 110.054C102.347 101.098 95.1073 93.8384 86.177 93.8384C77.2467 93.8384 70.0073 101.098 70.0073 110.054C70.0073 119.009 77.2467 126.269 86.177 126.269Z" fill="#A0616A"/>
<path d="M69.803 120.502C69.803 120.502 73.3643 121.482 75.4367 122.027C75.3296 120.48 74.6617 119.032 74.3225 117.519C73.9834 116.007 74.057 114.227 75.1782 113.159C76.2994 112.091 78.6345 112.507 78.8152 114.044C79.7637 112.01 80.7142 109.972 81.6666 107.931C84.3824 113.537 89.9345 108.76 95.9883 110.176C99.0766 110.906 102.947 110.592 104.579 107.863C103.662 107.091 102.889 106.162 102.298 105.119C103.239 105.396 104.218 105.52 105.198 105.487C105.175 104.511 104.919 103.555 104.452 102.698C103.984 101.842 103.318 101.111 102.51 100.566C101.639 99.9955 103.794 97.9642 103.034 97.2492C101.476 95.7898 100.43 96.7808 99.5089 94.8572C98.9152 93.6677 98.0005 92.6692 96.8688 91.9753C95.7371 91.2815 94.4339 90.9201 93.1075 90.9324C90.4613 90.9946 85.7197 90.969 84.6931 93.4138C81.421 91.2657 76.8662 91.8726 73.6679 94.126C71.0095 95.9916 67.9841 101.631 67.3164 104.814C66.6487 107.998 68.1202 117.728 69.803 120.502Z" fill="#2F2E41"/>
<path d="M143.477 192.118C143.201 192.118 142.927 192.176 142.674 192.287C142.421 192.398 142.193 192.561 142.006 192.765C141.818 192.969 141.675 193.21 141.585 193.472C141.495 193.734 141.461 194.012 141.483 194.288C144.537 202.205 144.124 211.369 143.733 221.738C143.777 222.238 144.005 222.705 144.374 223.046C144.743 223.386 145.225 223.577 145.727 223.579H158.633C159.135 223.577 159.617 223.386 159.986 223.046C160.355 222.705 160.583 222.238 160.627 221.738C159.578 211.665 160.144 202.42 162.877 194.288C162.899 194.012 162.864 193.734 162.775 193.472C162.685 193.21 162.541 192.969 162.354 192.765C162.167 192.561 161.939 192.398 161.686 192.287C161.433 192.176 161.159 192.118 160.883 192.118H143.477Z" fill="#D2B100"/>
<path d="M163.91 195.777L162.947 191.19C162.859 190.773 162.631 190.399 162.301 190.13C161.971 189.862 161.559 189.715 161.134 189.715H155.123C155.1 189.635 155.061 189.56 155.01 189.494L154.342 188.657C154.279 188.578 154.199 188.515 154.109 188.471C154.018 188.427 153.918 188.404 153.818 188.404H150.106C150.005 188.404 149.906 188.427 149.815 188.471C149.724 188.515 149.644 188.578 149.581 188.657L148.914 189.494C148.862 189.56 148.824 189.635 148.801 189.715H143.225C142.8 189.715 142.388 189.862 142.058 190.13C141.728 190.399 141.5 190.773 141.413 191.19L140.45 195.777C140.393 196.047 140.397 196.327 140.462 196.596C140.526 196.865 140.65 197.116 140.824 197.33C140.998 197.545 141.217 197.718 141.466 197.837C141.715 197.956 141.987 198.017 142.262 198.017C148.412 201.181 155.013 201.259 162.097 198.017C162.373 198.017 162.645 197.956 162.894 197.837C163.143 197.718 163.362 197.545 163.536 197.33C163.709 197.116 163.833 196.865 163.898 196.596C163.962 196.327 163.967 196.047 163.91 195.777Z" fill="white"/>
<path d="M327.618 198.096C327.302 196.888 326.182 193.198 324.758 194.828C324.546 195.07 324.379 194.292 324.183 194.006C323.843 193.512 323.638 191.4 323.278 190.843C322.547 189.711 321.639 190.046 320.896 188.732C318.769 184.976 316.785 180.688 316.046 177.063C313.783 165.968 316.9 150.796 316.9 150.796L315.891 129.184L308.527 128.936V128.45C308.527 127.474 308.141 126.539 307.453 125.849C306.765 125.159 305.832 124.772 304.859 124.772H290.834C289.902 124.772 289.005 125.129 288.326 125.769C287.647 126.408 287.237 127.283 287.178 128.216L281.403 128.021L271.401 159.888C271.401 159.888 276.069 171.916 277.715 183.591C278.162 186.739 278.27 189.927 278.038 193.098C277.815 196.314 277.187 199.488 276.169 202.546C276.169 202.546 318.598 211.457 326.894 203.173C326.894 203.173 328.184 200.267 327.618 198.096Z" fill="#3F3D56"/>
<path d="M381.945 200.419H371.921V38.613C371.227 38.098 370.525 37.5904 369.817 37.0899C369.672 36.9956 369.535 36.8941 369.397 36.7998C365.127 33.8042 360.67 31.0861 356.054 28.6624C353.988 25.8871 351.726 23.2645 349.284 20.8151C342.087 13.5983 333.424 8.02067 323.885 4.46151C314.346 0.902347 304.154 -0.554847 294.003 0.189034C283.852 0.932914 273.98 3.86042 265.058 8.77244C256.136 13.6845 248.374 20.4658 242.299 28.6552C239.174 30.2942 236.132 32.0639 233.172 33.9641C232.89 34.1454 232.607 34.3267 232.333 34.508C232.325 34.5153 232.318 34.5153 232.311 34.5225C231.798 34.8588 231.378 35.3183 231.087 35.8591C230.797 36.4 230.646 37.0051 230.648 37.6194V200.419H216.4C210.108 200.419 204.677 205.576 204.706 211.886C204.711 213.325 204.988 214.75 205.523 216.085C205.729 216.61 205.978 217.117 206.268 217.601C206.637 218.235 207.066 218.832 207.548 219.385C208.614 220.604 209.927 221.581 211.4 222.25C212.874 222.92 214.472 223.265 216.089 223.265H382.256C385.268 223.261 388.155 222.062 390.288 219.93C392.421 217.798 393.626 214.906 393.64 211.886C393.668 205.576 388.237 200.419 381.945 200.419ZM330.242 200.419H271.9L263.858 88.9825H338.284L330.242 200.419Z" fill="#E6E6E6"/>
<path d="M339.649 159.028L364.582 136.752L371.937 140.407L342.034 171.859L339.649 159.028Z" fill="#FFB6B6"/>
<path d="M311.773 131.397L315.891 129.184C315.891 129.184 326.038 128.316 330.179 140.269L341.162 156.904L358.963 141.433L366.676 146.788L344.242 173.639L334.914 174.834L314.74 148.653L311.773 131.397Z" fill="#3F3D56"/>
<path d="M318.486 112.276C316.234 127.576 305.031 129.189 296.828 121.202C288.247 112.845 275.17 122.792 275.17 112.276C275.17 101.76 279.907 83.1191 296.828 83.1191C314.332 83.1191 320.016 101.872 318.486 112.276Z" fill="#2F2E41"/>
<path d="M296.756 121.184C304.804 121.184 311.329 114.641 311.329 106.569C311.329 98.4978 304.804 91.9546 296.756 91.9546C288.707 91.9546 282.182 98.4978 282.182 106.569C282.182 114.641 288.707 121.184 296.756 121.184Z" fill="#FFB6B6"/>
<path d="M279.917 105.136H285.681L288.224 97.9951L288.733 105.136H291.488L292.971 100.97L293.268 105.136C297.471 108.946 305.254 107.552 313.739 105.136C313.739 103.104 313.34 101.092 312.565 99.2151C311.789 97.338 310.653 95.6325 309.22 94.1959C307.788 92.7593 306.087 91.6197 304.215 90.8422C302.344 90.0647 300.337 89.6645 298.311 89.6646H295.345C293.319 89.6645 291.313 90.0647 289.441 90.8422C287.569 91.6197 285.868 92.7593 284.436 94.1959C283.003 95.6325 281.867 97.338 281.092 99.2151C280.316 101.092 279.917 103.104 279.917 105.136Z" fill="#2F2E41"/>
<path d="M253.105 209.918C254.258 209.915 255.386 209.575 256.349 208.939C257.312 208.303 258.069 207.398 258.528 206.337C258.986 205.276 259.126 204.103 258.929 202.964C258.733 201.824 258.21 200.766 257.423 199.921L265.535 178.438L267.196 171.257C266.275 170.677 265.235 170.315 264.154 170.198C263.073 170.08 261.979 170.211 260.956 170.58C259.932 170.949 259.006 171.547 258.247 172.328C257.488 173.109 256.916 174.053 256.574 175.088L248.123 200.705C247.534 201.604 247.199 202.646 247.154 203.72C247.109 204.794 247.355 205.861 247.866 206.806C248.377 207.751 249.134 208.54 250.057 209.088C250.979 209.636 252.033 209.923 253.105 209.918H253.105Z" fill="#FFB6B6"/>
<path d="M351.33 115.405C351.054 115.405 350.78 115.462 350.527 115.574C350.274 115.685 350.046 115.848 349.859 116.052C349.671 116.256 349.528 116.496 349.438 116.758C349.348 117.021 349.314 117.299 349.336 117.575C351.581 127.285 352.533 136.51 351.586 145.024C351.63 145.525 351.858 145.992 352.227 146.332C352.596 146.673 353.078 146.863 353.58 146.866H366.486C366.987 146.863 367.47 146.673 367.839 146.332C368.207 145.992 368.436 145.525 368.48 145.024C367.762 135.813 368.521 126.545 370.73 117.575C370.752 117.299 370.717 117.021 370.628 116.758C370.538 116.496 370.394 116.256 370.207 116.052C370.02 115.848 369.792 115.685 369.539 115.574C369.286 115.462 369.012 115.405 368.736 115.405H351.33Z" fill="#D2B100"/>
<path d="M371.763 119.063L370.8 114.476C370.712 114.059 370.484 113.685 370.154 113.416C369.824 113.148 369.412 113.001 368.987 113.001H362.976C362.953 112.921 362.914 112.846 362.863 112.781L362.195 111.943C362.132 111.864 362.052 111.801 361.962 111.757C361.871 111.713 361.771 111.69 361.671 111.69H357.959C357.858 111.69 357.759 111.713 357.668 111.757C357.577 111.801 357.497 111.864 357.434 111.943L356.767 112.781C356.715 112.846 356.677 112.921 356.654 113.001H351.078C350.653 113.001 350.241 113.148 349.911 113.416C349.581 113.685 349.353 114.059 349.266 114.476L348.303 119.063C348.246 119.334 348.25 119.613 348.315 119.882C348.379 120.151 348.503 120.402 348.677 120.616C348.851 120.831 349.07 121.004 349.319 121.123C349.568 121.242 349.84 121.304 350.115 121.304C356.764 124.083 363.383 124.632 369.95 121.304C370.226 121.304 370.498 121.242 370.747 121.123C370.996 121.004 371.215 120.831 371.389 120.616C371.562 120.402 371.686 120.151 371.751 119.882C371.815 119.613 371.82 119.334 371.763 119.063Z" fill="white"/>
<path d="M292.727 27.873C292.542 27.873 292.359 27.9115 292.189 27.9861C292.019 28.0607 291.867 28.1698 291.741 28.3065C291.616 28.4431 291.52 28.6044 291.46 28.7801C291.399 28.9558 291.376 29.1422 291.391 29.3274L292.899 47.7211C292.928 48.0568 293.081 48.3694 293.328 48.5977C293.576 48.8259 293.899 48.9535 294.235 48.9552H302.883C303.219 48.9535 303.543 48.8259 303.79 48.5977C304.037 48.3694 304.19 48.0568 304.219 47.7211L305.727 29.3274C305.742 29.1422 305.719 28.9558 305.659 28.7801C305.598 28.6044 305.502 28.4431 305.377 28.3065C305.251 28.1698 305.099 28.0607 304.929 27.9861C304.759 27.9115 304.576 27.873 304.391 27.873H292.727Z" fill="white"/>
<path d="M306.419 30.3247L305.774 27.2512C305.716 26.9717 305.563 26.7209 305.342 26.5409C305.12 26.361 304.844 26.2627 304.559 26.2627H300.531C300.516 26.2091 300.49 26.1589 300.456 26.1148L300.008 25.5537C299.966 25.5008 299.913 25.4582 299.852 25.4288C299.791 25.3995 299.724 25.3843 299.657 25.3843H297.17C297.102 25.3843 297.035 25.3995 296.975 25.4288C296.914 25.4582 296.86 25.5008 296.818 25.5537L296.37 26.1148C296.336 26.1589 296.311 26.2091 296.295 26.2627H292.559C292.274 26.2627 291.998 26.361 291.777 26.5409C291.555 26.7209 291.403 26.9717 291.344 27.2512L290.699 30.3247C290.661 30.506 290.663 30.6935 290.707 30.8736C290.75 31.0536 290.833 31.2217 290.95 31.3656C291.066 31.5094 291.213 31.6254 291.38 31.7051C291.546 31.7847 291.729 31.8261 291.913 31.8261H305.205C305.389 31.8261 305.572 31.7847 305.739 31.7051C305.905 31.6254 306.052 31.5094 306.169 31.3656C306.285 31.2217 306.368 31.0536 306.411 30.8736C306.455 30.6935 306.457 30.506 306.419 30.3247Z" fill="#CCCCCC"/>
<path d="M298.732 59.4716C294.011 59.4716 289.397 58.0679 285.472 55.4381C281.547 52.8082 278.488 49.0703 276.682 44.697C274.876 40.3237 274.403 35.5114 275.324 30.8687C276.245 26.226 278.518 21.9615 281.856 18.6143C285.193 15.2671 289.446 12.9876 294.075 12.0641C298.705 11.1407 303.504 11.6146 307.865 13.4261C312.226 15.2376 315.953 18.3052 318.576 22.2411C321.198 26.177 322.598 30.8043 322.598 35.5379C322.591 41.8833 320.074 47.9668 315.6 52.4537C311.125 56.9406 305.059 59.4645 298.732 59.4716ZM298.732 13.0548C294.297 13.0548 289.963 14.3734 286.276 16.8439C282.589 19.3144 279.715 22.8257 278.018 26.934C276.321 31.0423 275.877 35.5629 276.742 39.9242C277.608 44.2855 279.743 48.2916 282.878 51.4359C286.014 54.5803 290.009 56.7216 294.358 57.5891C298.707 58.4566 303.215 58.0114 307.311 56.3097C311.408 54.608 314.909 51.7263 317.373 48.0289C319.836 44.3316 321.151 39.9847 321.151 35.5379C321.145 29.5771 318.78 23.8624 314.577 19.6474C310.374 15.4325 304.676 13.0616 298.732 13.0548Z" fill="#F2F2F2"/>
<path d="M371.777 364.082H229.302L229.462 347.482L229.476 346.039L230.749 216.128H371.053L371.234 253.658L371.242 255.102L371.777 364.082Z" fill="#E6E6E6"/>
<path d="M454.139 364.777L0.861066 365C0.633113 364.999 0.414717 364.908 0.253763 364.746C0.092809 364.584 0.00244141 364.365 0.00244141 364.136C0.00244141 363.908 0.092809 363.688 0.253763 363.527C0.414717 363.365 0.633113 363.273 0.861066 363.273L454.139 363.05C454.367 363.05 454.586 363.141 454.748 363.303C454.909 363.465 455 363.684 455 363.913C455 364.142 454.909 364.362 454.748 364.524C454.586 364.686 454.367 364.777 454.139 364.777Z" fill="#CACACA"/>
<path d="M222.308 171.086C222.031 171.086 221.758 171.143 221.505 171.255C221.251 171.366 221.024 171.529 220.837 171.733C220.649 171.937 220.506 172.177 220.416 172.44C220.326 172.702 220.291 172.98 220.314 173.256C222.357 182.912 223.256 192.12 222.564 200.705C222.608 201.206 222.836 201.673 223.205 202.013C223.574 202.354 224.056 202.544 224.558 202.547H237.464C237.965 202.544 238.448 202.354 238.817 202.013C239.185 201.673 239.414 201.206 239.458 200.705C238.415 192.046 239.518 182.8 241.707 173.256C241.73 172.98 241.695 172.702 241.605 172.44C241.515 172.177 241.372 171.937 241.185 171.733C240.998 171.529 240.77 171.366 240.517 171.255C240.264 171.143 239.99 171.086 239.714 171.086H222.308Z" fill="#D2B100"/>
<path d="M242.741 174.744L241.778 170.157C241.69 169.74 241.462 169.366 241.132 169.098C240.802 168.829 240.39 168.682 239.965 168.682H233.954C233.931 168.602 233.892 168.528 233.841 168.462L233.173 167.624C233.11 167.546 233.03 167.482 232.94 167.438C232.849 167.394 232.749 167.372 232.649 167.372H228.937C228.836 167.372 228.737 167.394 228.646 167.438C228.555 167.482 228.475 167.546 228.413 167.624L227.745 168.462C227.693 168.528 227.655 168.602 227.632 168.682H222.056C221.631 168.682 221.219 168.829 220.889 169.098C220.559 169.366 220.331 169.74 220.244 170.157L219.281 174.744C219.224 175.015 219.228 175.295 219.293 175.563C219.358 175.832 219.481 176.083 219.655 176.297C219.829 176.512 220.048 176.685 220.297 176.804C220.546 176.923 220.818 176.985 221.093 176.985C227.554 178.987 234.467 178.987 240.928 176.985C241.204 176.985 241.476 176.923 241.725 176.804C241.974 176.685 242.193 176.512 242.367 176.297C242.54 176.083 242.664 175.832 242.729 175.563C242.793 175.295 242.798 175.015 242.741 174.744Z" fill="white"/>
<path d="M297.792 276.325H231.472V277.776H297.792V276.325Z" fill="#F2F2F2"/>
<path d="M370.837 222.656H304.517V224.106H370.837V222.656Z" fill="#F2F2F2"/>
<path d="M333.953 322.742H267.633V324.193H333.953V322.742Z" fill="#F2F2F2"/>
<path d="M371.242 255.293H339.955V253.842H371.234L371.242 255.293Z" fill="#F2F2F2"/>
<path d="M238.169 212.502H206.883V211.052H238.162L238.169 212.502Z" fill="#F2F2F2"/>
<path d="M262.759 69.6253H231.472V68.1748H262.751L262.759 69.6253Z" fill="#F2F2F2"/>
<path d="M367.625 39.8895H336.339V38.439H367.618L367.625 39.8895Z" fill="#F2F2F2"/>
<path d="M335.804 69.6253H304.517V68.1748H335.797L335.804 69.6253Z" fill="#F2F2F2"/>
<path d="M249.336 346.676V348.126H229.462L229.476 346.676H249.336Z" fill="#F2F2F2"/>
<path d="M369.31 145.859C372.587 145.859 375.243 143.195 375.243 139.908C375.243 136.622 372.587 133.958 369.31 133.958C366.033 133.958 363.376 136.622 363.376 139.908C363.376 143.195 366.033 145.859 369.31 145.859Z" fill="#FFB6B6"/>
<path d="M283.885 131.992L281.403 128.021C281.403 128.021 273.327 126.019 270.002 131.386C266.677 136.752 248.787 194.47 248.787 194.47L258.912 198.096L278.439 153.307L283.885 131.992Z" fill="#3F3D56"/>
</svg>
