<svg width="1512" height="1467" viewBox="0 0 1512 1467" fill="none" xmlns="http://www.w3.org/2000/svg">
<path d="M2618 292.872L2474.43 439.309C2330.87 585.745 2043.73 878.617 1756.6 1122.98C1469.47 1363.69 1182.33 1565.04 895.2 1415.86C608.067 1272.17 320.933 777.943 33.7999 634.252C-253.333 485.07 -540.467 686.42 -827.6 634.252C-1114.73 585.745 -1401.87 292.873 -1545.43 146.436L-1689 -6.02265e-05L-1545.43 -7.27692e-05C-1401.87 -8.53118e-05 -1114.73 -0.000110397 -827.6 -0.000135483C-540.467 -0.000160568 -253.334 -0.000185653 33.7998 -0.000210739C320.933 -0.000235824 608.066 -0.000260909 895.2 -0.000285995C1182.33 -0.00031108 1469.47 -0.000336166 1756.6 -0.000361251C2043.73 -0.000386336 2330.87 -0.000411422 2474.43 -0.000423964L2618 -0.000436507L2618 292.872Z" fill="black" fill-opacity="0.04"/>
</svg>
