<svg width="1512" height="733" viewBox="0 0 1512 733" fill="none" xmlns="http://www.w3.org/2000/svg">
<path d="M1861 146.336L1789.3 219.505C1717.6 292.673 1574.2 439.009 1430.8 561.109C1287.4 681.379 1144 781.985 1000.6 707.445C857.2 635.649 713.8 388.706 570.4 316.91C427 242.37 283.6 342.976 140.2 316.91C-3.19999 292.673 -146.6 146.336 -218.3 73.1682L-290 4.94092e-06L-218.3 -1.32729e-06C-146.6 -7.5955e-06 -3.20002 -2.01319e-05 140.2 -3.26684e-05C283.6 -4.52048e-05 427 -5.77412e-05 570.4 -7.02776e-05C713.8 -8.28141e-05 857.2 -9.53505e-05 1000.6 -0.000107887C1144 -0.000120423 1287.4 -0.00013296 1430.8 -0.000145496C1574.2 -0.000158033 1717.6 -0.000170569 1789.3 -0.000176837L1861 -0.000183105L1861 146.336Z" fill="#F0F1E9"/>
</svg>
